<svg width="40" height="40" viewBox="140 80 825 825" fill="none" xmlns="http://www.w3.org/2000/svg" preserveAspectRatio="xMidYMid meet">
    <defs>
        <linearGradient id="jGradient" x1="330" y1="165" x2="660" y2="870" gradientUnits="userSpaceOnUse">
            <stop offset="0" stop-color="#14b8a6"/>
            <stop offset="0.48" stop-color="#38bdf8"/>
            <stop offset="1" stop-color="#6366f1"/>
        </linearGradient>
        <linearGradient id="sideGradient" x1="650" y1="120" x2="930" y2="890" gradientUnits="userSpaceOnUse">
            <stop offset="0" stop-color="#162033"/>
            <stop offset="1" stop-color="#0f172a"/>
        </linearGradient>
        <linearGradient id="accentGradient" x1="0" y1="0" x2="1" y2="1">
            <stop offset="0" stop-color="#14b8a6"/>
            <stop offset="1" stop-color="#6366f1"/>
        </linearGradient>
        <filter id="softGlow" x="-50%" y="-50%" width="200%" height="200%">
            <feGaussianBlur stdDeviation="32" result="blur"/>
            <feColorMatrix in="blur" type="matrix" values="0 0 0 0 0.078 0 0 0 0 0.722 0 0 0 0 0.651 0 0 0 0.42 0"/>
            <feBlend in="SourceGraphic" mode="normal"/>
        </filter>
        <filter id="smallShadow" x="-20%" y="-20%" width="140%" height="140%">
            <feDropShadow dx="0" dy="8" stdDeviation="10" flood-color="#020617" flood-opacity="0.45"/>
        </filter>
    </defs>

    <!-- Transparent background by design -->

    <!-- Abstract original J / ticket mark -->
    <g filter="url(#softGlow)">
        <path d="M454 166H558C618 166 665 213 665 273V606C665 760 558 858 421 858C300 858 192 784 158 674C151 650 169 627 194 627H319C334 627 347 637 351 651C361 687 390 708 428 708C477 708 511 669 511 609V563H357C330 563 308 541 308 514V382C308 367 316 354 328 346L358 326C374 315 374 292 358 281L328 259C316 251 308 238 308 224V212C308 187 329 166 354 166H454Z" fill="url(#jGradient)"/>
        <path d="M517 604V735C517 766 504 796 482 819C462 800 451 772 451 743V604H517Z" fill="#312e81" fill-opacity="0.55"/>
        <circle cx="599" cy="232" r="28" fill="#0f172a"/>
        <path d="M454 166H558C618 166 665 213 665 273V606C665 760 558 858 421 858C300 858 192 784 158 674C151 650 169 627 194 627H319C334 627 347 637 351 651C361 687 390 708 428 708C477 708 511 669 511 609V563H357C330 563 308 541 308 514V382C308 367 316 354 328 346L358 326C374 315 374 292 358 281L328 259C316 251 308 238 308 224V212C308 187 329 166 354 166H454Z" stroke="#67e8f9" stroke-opacity="0.45" stroke-width="3"/>
    </g>

    <!-- Side tool-window panel -->
    <g filter="url(#smallShadow)">
        <rect x="675" y="118" width="270" height="782" rx="42" fill="url(#sideGradient)" stroke="#334155" stroke-width="4"/>
        <rect x="686" y="132" width="248" height="754" rx="32" stroke="#475569" stroke-opacity="0.55" stroke-width="2"/>
        <path d="M676 206L704 233L676 260" stroke="url(#accentGradient)" stroke-width="8" stroke-linecap="round" stroke-linejoin="round"/>

        <!-- Issue rows -->
        <g opacity="0.9">
            <line x1="706" y1="284" x2="934" y2="284" stroke="#334155" stroke-width="2"/>
            <line x1="706" y1="405" x2="934" y2="405" stroke="#334155" stroke-width="2"/>
            <line x1="706" y1="526" x2="934" y2="526" stroke="#334155" stroke-width="2"/>
            <line x1="706" y1="647" x2="934" y2="647" stroke="#334155" stroke-width="2"/>
            <line x1="706" y1="768" x2="934" y2="768" stroke="#334155" stroke-width="2"/>
        </g>

        <g>
            <circle cx="743" cy="208" r="21" fill="#2dd4bf"/>
            <rect x="788" y="191" width="139" height="18" rx="9" fill="#94a3b8" fill-opacity="0.65"/>
            <rect x="788" y="224" width="92" height="18" rx="9" fill="#94a3b8" fill-opacity="0.5"/>
        </g>
        <g>
            <circle cx="743" cy="330" r="21" fill="#6366f1"/>
            <rect x="788" y="314" width="133" height="18" rx="9" fill="#94a3b8" fill-opacity="0.65"/>
            <rect x="788" y="347" width="88" height="18" rx="9" fill="#94a3b8" fill-opacity="0.5"/>
        </g>
        <g>
            <circle cx="743" cy="452" r="21" fill="#6366f1"/>
            <rect x="788" y="436" width="124" height="18" rx="9" fill="#94a3b8" fill-opacity="0.65"/>
            <rect x="788" y="469" width="77" height="18" rx="9" fill="#94a3b8" fill-opacity="0.5"/>
        </g>
        <g>
            <circle cx="743" cy="574" r="21" fill="#2dd4bf"/>
            <rect x="788" y="558" width="115" height="18" rx="9" fill="#94a3b8" fill-opacity="0.65"/>
            <rect x="788" y="591" width="70" height="18" rx="9" fill="#94a3b8" fill-opacity="0.5"/>
        </g>
        <g>
            <circle cx="743" cy="696" r="21" fill="#6366f1"/>
            <rect x="788" y="680" width="133" height="18" rx="9" fill="#94a3b8" fill-opacity="0.65"/>
            <rect x="788" y="713" width="87" height="18" rx="9" fill="#94a3b8" fill-opacity="0.5"/>
        </g>

        <!-- Tiny code bracket hint -->
        <path d="M797 803L765 835L797 867" stroke="#38bdf8" stroke-width="14" stroke-linecap="round" stroke-linejoin="round"/>
        <path d="M862 803L894 835L862 867" stroke="#6366f1" stroke-width="14" stroke-linecap="round" stroke-linejoin="round"/>
    </g>
</svg>
